<svg width="25" height="25" viewBox="0 0 25 25" fill="none" xmlns="http://www.w3.org/2000/svg">
<g id="copy (1) 1">
<path id="copy-alt" d="M18.875 6.74999H10.125C9.66896 6.697 9.20686 6.74784 8.77327 6.89872C8.33968 7.04959 7.94583 7.29658 7.62121 7.62121C7.29658 7.94583 7.04959 8.33968 6.89872 8.77327C6.74784 9.20686 6.697 9.66896 6.74999 10.125V18.875C6.697 19.331 6.74784 19.7931 6.89872 20.2267C7.04959 20.6603 7.29658 21.0541 7.62121 21.3788C7.94583 21.7034 8.33968 21.9504 8.77327 22.1013C9.20686 22.2521 9.66896 22.303 10.125 22.25H18.875C19.331 22.303 19.7931 22.2521 20.2267 22.1013C20.6603 21.9504 21.0541 21.7034 21.3788 21.3788C21.7034 21.0541 21.9504 20.6603 22.1013 20.2267C22.2521 19.7931 22.303 19.331 22.25 18.875V10.125C22.303 9.66896 22.2521 9.20686 22.1013 8.77327C21.9504 8.33968 21.7034 7.94583 21.3788 7.62121C21.0541 7.29658 20.6603 7.04959 20.2267 6.89872C19.7931 6.74784 19.331 6.697 18.875 6.74999ZM20.75 18.875C20.75 20.207 20.207 20.75 18.875 20.75H10.125C8.79299 20.75 8.24999 20.207 8.24999 18.875V10.125C8.24999 8.79299 8.79299 8.24999 10.125 8.24999H18.875C20.207 8.24999 20.75 8.79299 20.75 10.125V18.875ZM4.24999 6.11999V14.88C4.24999 16.08 4.73299 16.373 4.89199 16.47C5.05405 16.5775 5.16808 16.7437 5.2101 16.9336C5.25211 17.1234 5.21883 17.3222 5.11725 17.4881C5.01568 17.6539 4.85372 17.7739 4.66548 17.8227C4.47724 17.8716 4.27739 17.8455 4.10799 17.75C3.64439 17.438 3.27355 17.0067 3.03455 16.5016C2.79555 15.9965 2.69724 15.4363 2.74998 14.88V6.11999C2.70256 5.66578 2.75714 5.20671 2.90973 4.77628C3.06232 4.34585 3.30908 3.95491 3.632 3.632C3.95491 3.30908 4.34585 3.06232 4.77628 2.90973C5.20671 2.75714 5.66578 2.70256 6.11999 2.74998H14.88C15.4364 2.69659 15.9968 2.7946 16.502 3.03366C17.0073 3.27272 17.4385 3.64392 17.75 4.10799C17.8015 4.19197 17.8359 4.28526 17.8513 4.38255C17.8667 4.47984 17.8628 4.57921 17.8399 4.67499C17.8169 4.77078 17.7753 4.8611 17.7174 4.94079C17.6595 5.02049 17.5865 5.08801 17.5025 5.13949C17.4185 5.19096 17.3252 5.2254 17.2279 5.24082C17.1306 5.25624 17.0313 5.25235 16.9355 5.22937C16.8397 5.20638 16.7494 5.16476 16.6697 5.10687C16.59 5.04898 16.5225 4.97597 16.471 4.89199C16.371 4.73299 16.078 4.24999 14.88 4.24999H6.11999C4.79199 4.24999 4.24999 4.79199 4.24999 6.11999Z" fill="#F6F6F6"/>
</g>
</svg>
